<svg width="35" height="35" viewBox="0 0 35 35" fill="none" xmlns="http://www.w3.org/2000/svg">
<path d="M30.625 6.5625H4.375C4.08492 6.5625 3.80672 6.67773 3.6016 6.88285C3.39648 7.08797 3.28125 7.36617 3.28125 7.65625V26.25C3.28125 26.8302 3.51172 27.3866 3.92195 27.7968C4.33219 28.207 4.88859 28.4375 5.46875 28.4375H29.5312C30.1114 28.4375 30.6678 28.207 31.078 27.7968C31.4883 27.3866 31.7188 26.8302 31.7188 26.25V7.65625C31.7188 7.36617 31.6035 7.08797 31.3984 6.88285C31.1933 6.67773 30.9151 6.5625 30.625 6.5625ZM29.5312 26.25H5.46875V10.1432L16.7604 20.4941C16.9621 20.6794 17.2261 20.7822 17.5 20.7822C17.7739 20.7822 18.0379 20.6794 18.2396 20.4941L29.5312 10.1432V26.25Z" fill="#193A84"/>
</svg>
