<svg width="35" height="35" viewBox="0 0 35 35" fill="none" xmlns="http://www.w3.org/2000/svg">
<path d="M20.0074 14.9925C19.9057 14.891 19.8251 14.7703 19.77 14.6376C19.715 14.5048 19.6867 14.3625 19.6867 14.2187C19.6867 14.075 19.715 13.9327 19.77 13.7999C19.8251 13.6671 19.9057 13.5465 20.0074 13.4449L24.7037 8.74997H21.875C21.5849 8.74997 21.3067 8.63473 21.1016 8.42962C20.8965 8.2245 20.7813 7.9463 20.7813 7.65622C20.7813 7.36614 20.8965 7.08794 21.1016 6.88282C21.3067 6.6777 21.5849 6.56247 21.875 6.56247H27.3438C27.6339 6.56247 27.9121 6.6777 28.1172 6.88282C28.3223 7.08794 28.4375 7.36614 28.4375 7.65622V13.125C28.4375 13.415 28.3223 13.6932 28.1172 13.8984C27.9121 14.1035 27.6339 14.2187 27.3438 14.2187C27.0537 14.2187 26.7755 14.1035 26.5704 13.8984C26.3653 13.6932 26.25 13.415 26.25 13.125V10.2963L21.5551 14.9925C21.4535 15.0942 21.3329 15.1749 21.2001 15.23C21.0673 15.285 20.925 15.3133 20.7813 15.3133C20.6375 15.3133 20.4952 15.285 20.3624 15.23C20.2296 15.1749 20.109 15.0942 20.0074 14.9925ZM29.3043 22.7582L22.8635 19.872L22.8457 19.8638C22.5114 19.7208 22.1466 19.6634 21.7845 19.6969C21.4223 19.7303 21.0742 19.8534 20.7717 20.0552C20.7361 20.0788 20.7018 20.1043 20.6692 20.1318L17.3455 22.9687C15.2373 21.9447 13.0608 19.7845 12.0367 17.7037L14.8778 14.3254C14.9051 14.2912 14.9311 14.257 14.9557 14.2201C15.1531 13.9184 15.2729 13.5725 15.3044 13.2133C15.3359 12.854 15.2781 12.4926 15.1361 12.1611V12.1447L12.2418 5.69294C12.0542 5.2599 11.7315 4.89917 11.3219 4.66459C10.9124 4.43001 10.438 4.33417 9.96955 4.39137C8.11697 4.63515 6.41647 5.54496 5.18566 6.95088C3.95486 8.3568 3.27791 10.1627 3.28126 12.0312C3.28126 22.8867 12.1133 31.7187 22.9688 31.7187C24.8373 31.7221 26.6432 31.0451 28.0491 29.8143C29.455 28.5835 30.3648 26.883 30.6086 25.0304C30.6659 24.5621 30.5703 24.0878 30.336 23.6783C30.1016 23.2688 29.7412 22.9461 29.3084 22.7582H29.3043Z" fill="#193A84"/>
</svg>
